<svg xml:space="preserve" viewBox="0 0 100 100" y="0" x="0" xmlns="http://www.w3.org/2000/svg" id="圖層_1" version="1.1" preserveAspectRatio="xMidYMid" width="200" height="200" xmlns:xlink="http://www.w3.org/1999/xlink" style="margin-top:0px;margin-right:0px;margin-bottom:0px;margin-left:0px;display:block;shape-rendering:auto;background-position-x:0%;background-position-y:0%;background-size:auto;background-origin:padding-box;background-clip:border-box;background:scroll rgb(255, 255, 255) none  repeat;width:200px;height:200px;;animation:none"><g class="ldl-scale" style="transform-origin:50px 50px;transform:matrix(0.8, 0, 0, 0.8, 0, 0);;animation:none"><g class="ldl-ani" style="transform:matrix(1, 0, 0, 1, 0, 0);transform-box:view-box;animation-duration:1s;animation-timing-function:linear;animation-delay:0s;animation-iteration-count:infinite;animation-direction:normal;animation-fill-mode:forwards;animation-play-state:paused;animation-name:animate;animation-timeline:auto;animation-range-start:normal;animation-range-end:normal;transform-origin:50px 50px;;animation:none"><g class="ldl-layer"><g class="ldl-ani" style="transform-box:view-box;;animation:none"><path fill="#9f69b8" d="M60.27 46.693A23.131 23.131 0 0 0 50 44.296c-3.704 0-7.189.875-10.27 2.397-7.257 3.585-12.23 10.831-12.23 19.206v14.467c0 2.984 2.52 5.403 5.628 5.403h33.745c3.108 0 5.628-2.419 5.628-5.403V65.899c-.001-8.375-4.974-15.621-12.231-19.206z" style="stroke-width:1px;fill:rgb(193, 109, 233);;animation:none"></path></g></g>
<g class="ldl-layer"><g class="ldl-ani" style="transform-box:view-box;;animation:none"><path fill="#c33737" d="M61.176 44.557c-.095.009-.19.029-.286.064-2.258.837-6.577 1.254-10.891 1.252-4.314.002-8.633-.415-10.891-1.252a1.133 1.133 0 0 0-.286-.064c-.668-.024-1.262.57-1.262 1.352 0 .662-.06 1.404-.061 2.14-.001.736.057 1.466.294 2.103.042.113.09.224.144.331.251.497.702.864 1.263 1.139.415.124.808.208 1.037.263 1.354.328 2.74.507 4.128.627.164.01.32.02.458.032.676.056 1.354.1 2.032.133.512.024 1.025.037 1.538.05.172.004.344.013.516.016.363.006.726.001 1.089.002.363 0 .726.004 1.089-.002.172-.003.343-.012.515-.016a71.77 71.77 0 0 0 1.54-.05 59.89 59.89 0 0 0 2.032-.133c.138-.012.294-.022.458-.032 1.388-.12 2.775-.3 4.128-.627.229-.055.622-.139 1.037-.263.561-.275 1.012-.642 1.263-1.139a3.15 3.15 0 0 0 .144-.331c.237-.637.295-1.367.294-2.103-.001-.736-.061-1.478-.061-2.14.002-.782-.593-1.376-1.261-1.352z" style="stroke-width:1px;fill:rgb(51, 169, 255);;animation:none"></path></g></g>
<g class="ldl-layer"><g class="ldl-ani" style="transform-box:view-box;;animation:none"><circle fill="#c7b299" r="14.513" cy="34.783" cx="50" style="stroke-width:1px;fill:rgb(252, 215, 171);;animation:none"></circle></g></g>
<g class="ldl-layer"><g class="ldl-ani" style="transform-box:view-box;;animation:none"><path fill="#c33737" d="M65.139 22.411a7.014 7.014 0 0 0-.826-.836c-.545-.468-2.638-2.657-3.28-2.592.209-.021.411-.04.591-.076.277-.035.535-.07.785-.158.127-.041.257-.062.384-.157.131-.113.256-.154.425-.641a.227.227 0 0 0-.002-.152c-.177-.502-.395-.551-.606-.656-.214-.082-.423-.076-.631-.076a2.49 2.49 0 0 0-1.157.303c-.356.163-.637.433-.863.72-.018.026-.034.053-.051.079-1.495-1.056-3.171-2.364-4.856-3.049-1.814-.737-3.945-.964-5.886-.868a9.45 9.45 0 0 0-1.843.251c-1.609.404-4.05 1.859-4.478 3.63-.424 1.755 1.245 3.574 2.74 4.186 5.939 1.378 11.556 3.367 16.448 6.734 2.82 1.155 4.895-1.304 4.371-4.043-.183-.973-.644-1.854-1.265-2.599z" style="stroke-width:1px;fill:rgb(51, 169, 255);;animation:none"></path></g></g>
<g class="ldl-layer"><g class="ldl-ani"><g><g class="ldl-layer"><g class="ldl-ani" style="transform-box:view-box;;animation:none"><path fill="#333" d="M48.661 37.336c-.207-.233-.565-.192-.644-.083-.08.118-.139.318-.158.585-.073.509-.011 1.026.052 1.566.115 1.06.442 2.349-.064 3.826-.259.699-.73 1.406-1.498 1.837-.376.204-.811.35-1.305.331a2.017 2.017 0 0 1-1.326-.56c-.337-.32-.576-.775-.587-1.268a1.614 1.614 0 0 1 .522-1.215c.607-.605 1.797-.423 1.874.312-.241-.23-.495-.191-.727-.106a.65.65 0 0 0-.388.418c-.132.381.078.533.298.639.335.171.985-.273 1.259-1.076.3-.769.23-1.891.375-3.159.079-.63.255-1.301.602-1.893.182-.267.409-.656.893-.76.488-.05.788.292.822.606z" style="stroke-width:1px;fill:rgb(51, 51, 51);;animation:none"></path></g></g></g></g></g>
<g class="ldl-layer"><g class="ldl-ani"><g><g class="ldl-layer"><g class="ldl-ani" style="transform-box:view-box;;animation:none"><path fill="#333" d="M51.339 37.336c.034-.314.334-.656.823-.605.484.104.711.492.893.76.347.592.523 1.263.602 1.893.144 1.267.074 2.389.375 3.159.274.802.924 1.247 1.259 1.076.221-.106.43-.258.298-.639a.652.652 0 0 0-.388-.418c-.232-.085-.486-.124-.727.106.077-.735 1.266-.918 1.874-.312.306.283.529.706.522 1.215-.01.493-.25.948-.587 1.268a2.017 2.017 0 0 1-1.326.56c-.494.019-.929-.127-1.305-.331-.768-.43-1.24-1.138-1.498-1.837-.506-1.477-.179-2.766-.064-3.826.063-.54.124-1.057.052-1.566-.019-.266-.079-.467-.158-.585-.08-.109-.438-.151-.645.082z" style="stroke-width:1px;fill:rgb(51, 51, 51);;animation:none"></path></g></g></g></g></g>
<g class="ldl-layer"><g class="ldl-ani" style="transform-box:view-box;;animation:none"><path fill="#c33737" d="M56.392 70.531h-.125a2.983 2.983 0 0 1-2.983-2.983V50.452c0-.716.58-1.296 1.296-1.296h3.671c.621 0 1.125.504 1.125 1.125v17.267a2.984 2.984 0 0 1-2.984 2.983z" style="stroke-width:1px;fill:rgb(51, 169, 255);;animation:none"></path></g></g>
<metadata xmlns:d="https://loading.io/stock/"></metadata></g></g>
<STYLE type="text/css">@keyframes animate { 0.00% {animation-timing-function: cubic-bezier(0.33,0.00,0.67,0.00);transform: translate(0.00px,0.00px) rotate(0.00deg) scale(1.00, 1.00) skew(0deg, 0.00deg) ;opacity: 1.00;}50.00% {animation-timing-function: cubic-bezier(0.33,0.00,0.67,0.00);transform: translate(0.00px,0.00px) rotate(0.00deg) ;}100.00% {animation-timing-function: cubic-bezier(0.33,0.00,0.67,0.00);transform: translate(0.00px,0.00px) rotate(0.00deg) ;} }</STYLE><!-- [ldio] generated by https://loading.io --></svg>